<?xml version="1.0" encoding="iso-8859-1"?>
<!-- Uploaded to: SVG Repo, www.svgrepo.com, Generator: SVG Repo Mixer Tools -->
<svg height="800px" width="800px" version="1.1" id="Layer_1" xmlns="http://www.w3.org/2000/svg" xmlns:xlink="http://www.w3.org/1999/xlink" 
	 viewBox="0 0 512 512" xml:space="preserve">
<circle style="fill:#273B7A;" cx="256" cy="256" r="256"/>
<path style="fill:#121149;" d="M500.519,332.035l-73.88-73.88l-28.269,34.68l-94.858-94.858l-3.546,2.907l-45.69-45.689
	l-22.164,29.222L191.6,143.905l-28.686,14.476l-49.423,45.328l19.559,170.646l137.242,137.242
	C378.911,505.618,469.487,431.938,500.519,332.035z"/>
<path style="fill:#D35933;" d="M385.238,258.155C384.083,328.563,326.684,385.293,256,385.293
	c-71.406,0-129.293-57.887-129.293-129.293c0-47.95,26.122-89.772,64.893-112.095l-30.058-30.058
	C115.607,144.431,85.333,196.677,85.333,256c0,94.256,76.41,170.667,170.667,170.667c93.536,0,169.484-75.25,170.639-168.512
	H385.238z"/>
<path style="fill:#B54324;" d="M385.238,258.155C384.083,328.563,326.684,385.293,256,385.293c-0.193,0-0.381-0.014-0.574-0.014
	v41.381c0.191,0,0.383,0.007,0.574,0.007c93.536,0,169.484-75.25,170.639-168.512H385.238z"/>
<path style="fill:#EAA22F;" d="M354.547,258.155c-1.15,53.458-44.815,96.447-98.547,96.447c-54.456,0-98.602-44.146-98.602-98.602
	c0-21.597,6.963-41.556,18.739-57.801l-27.286-16.063c-14.496,20.989-23.006,46.427-23.006,73.864
	c0,71.882,58.271,130.155,130.155,130.155c71.159,0,128.945-57.116,130.1-128H354.547z"/>
<path style="fill:#E09112;" d="M354.547,258.155c-1.15,53.458-44.815,96.447-98.547,96.447c-0.193,0-0.381-0.014-0.574-0.014v31.553
	c0.193,0,0.381,0.014,0.574,0.014c71.159,0,128.945-57.116,130.1-128L354.547,258.155L354.547,258.155z"/>
<path style="fill:#FFC61B;" d="M330.493,258.155c-1.102,41.148-33.023,72.402-74.493,72.402c-42.194,0-74.557-32.363-74.557-74.557
	c0-41.617,31.437-73.594,72.833-74.514v-26.291c-54.898,0.924-99.125,45.687-99.125,100.805
	c0,55.698,45.151,100.848,100.848,100.848c54.974,0,99.633-43.996,100.785-98.694H330.493z"/>
<path style="fill:#EAA22F;" d="M330.493,258.155c-1.102,41.148-33.023,72.402-74.493,72.402c-0.193,0-0.381-0.012-0.574-0.014
	v26.291c0.193,0.002,0.381,0.014,0.574,0.014c54.974,0,99.633-43.996,100.785-98.694H330.493z"/>
<path style="fill:#FEE187;" d="M302.249,258.155c-1.127,24.579-21.39,44.166-46.249,44.166c-25.583,0-46.321-20.739-46.321-46.321
	c0-25.583,20.739-46.321,46.321-46.321c9.059,0,17.503,2.61,24.642,7.104l22.871-18.806c-12.936-10.605-29.479-16.974-47.513-16.974
	c-41.42,0-74.997,33.577-74.997,74.997S214.58,330.997,256,330.997c40.696,0,73.787-32.423,74.931-72.842H302.249z"/>
<g>
	<path style="fill:#FFC61B;" d="M256,209.679c9.059,0,17.503,2.61,24.642,7.104l22.871-18.806
		c-12.936-10.605-29.479-16.974-47.513-16.974c-0.193,0-0.381,0.014-0.574,0.014v28.675
		C255.617,209.691,255.807,209.679,256,209.679z"/>
	<path style="fill:#FFC61B;" d="M302.249,258.155c-1.127,24.579-21.39,44.166-46.249,44.166c-0.193,0-0.381-0.012-0.574-0.014
		v28.675c0.191,0.002,0.381,0.014,0.574,0.014c40.696,0,73.787-32.423,74.931-72.842H302.249z"/>
</g>
</svg>